<svg id="Layer_1" enable-background="new 0 0 512.41 512.41" height="512" viewBox="0 0 512.41 512.41" width="512" xmlns="http://www.w3.org/2000/svg"><path d="m126.57 76.175c0-24.923 20.276-45.2 45.199-45.2h168.461c24.923 0 45.199 20.277 45.199 45.2v27.22h15v-27.22c0-33.194-27.005-60.2-60.199-60.2h-168.46c-33.194 0-60.199 27.006-60.199 60.2v27.22h15v-27.22z" fill="#fff"/><path d="m358.05 103.395v-27.22c0-9.826-7.994-17.82-17.819-17.82h-168.461c-9.825 0-17.819 7.994-17.819 17.82v27.22h15v-27.22c0-1.555 1.265-2.82 2.819-2.82h168.46c1.555 0 2.819 1.265 2.819 2.82v27.22z" fill="#fff"/><path d="m235.506 283.724-35.477 113.246h41.263l-23.551 66.466h36.731l81.297-122.039h-55.911l18.275-57.673zm72.248 72.672-61.313 92.039h-7.472l23.551-66.466h-42.073l26.078-83.246h31.12l-18.275 57.673z" fill="#fff"/><path d="m512.41 158.125-20.245-32.23h-44.345v15h36.054l13.536 21.55v88.28h-49.59c0-24.021 0-14.782 0-38.801-66.412 0-66-.095-66 .005h-.002v38.796h-251.636v-38.796c-134.003 0-13.764-.004-66.002-.004v38.8h-49.18v-88.28l13.535-21.55h404.285v-15h-412.576l-20.244 32.23v107.6h13.36v230.71h83.82v-15h-68.82v-215.71h35.82v37.672h-7.832v47.472l12.736 23.063h56.194l12.736-23.063v-47.472h-7.833v-37.672h251.637v37.672h-7.833v47.472l12.736 23.063h56.194l12.736-23.063v-47.472h-7.832v-37.672h35.819v215.71h-371.458v15h386.46v-230.71h13.771v-107.6zm-433.228 130.288h35.998v14.982h-35.998zm35.998-15h-35.998v-16.5h35.998zm0-31.5h-35.998v-14.984h35.998zm7.835 105.09-6.588 11.929h-38.491l-6.588-11.929v-28.606h51.667zm273.805-58.59h35.998v14.981h-35.998zm0-15v-16.5h35.998v16.5zm35.998-46.484v14.984h-35.998v-14.984zm7.834 120.074-6.588 11.929h-38.491l-6.588-11.929v-28.606h51.667z" fill="#fff"/><path d="m350.553 200.389h-129.106v-15h129.105v15zm-144.106 0h-15v-15h15zm-30 0h-15v-15h15z" fill="#fff"/></svg>