<svg id="Layer_5" enable-background="new 0 0 64 64" height="512" viewBox="0 0 64 64" width="512" xmlns="http://www.w3.org/2000/svg"><g><path d="m17 45h2v2h-2z" fill="#fff"/><path d="m9 45h2v2h-2z" fill="#fff"/><path d="m13 45h2v2h-2z" fill="#fff"/><path d="m46 18c0 2.206 1.794 4 4 4s4-1.794 4-4-1.794-4-4-4-4 1.794-4 4zm6 0c0 1.103-.897 2-2 2s-2-.897-2-2 .897-2 2-2 2 .897 2 2z" fill="#fff"/><path d="m63 21.708v-7.416l-1.826-.644c-.062-.157-.127-.314-.196-.471l.836-1.749-2.206-2.206 3.113-2.222-6.835-4.882c-1.023-.731-2.229-1.118-3.489-1.118h-.397c-1.666 0-3.175.684-4.263 1.784-.468-1.049-1.516-1.784-2.737-1.784h-38c-3.309 0-6 2.691-6 6 0 1.771.776 3.36 2 4.46v34.54c0 2.757 2.243 5 5 5h15.963c-.168 1.595-.997 3.041-2.296 4h-2.667c-2.757 0-5 2.243-5 5 0 1.654 1.346 3 3 3h30c1.654 0 3-1.346 3-3 0-2.757-2.243-5-5-5h-2.666c-1.299-.959-2.128-2.405-2.296-4h15.962c2.757 0 5-2.243 5-5v-20.615l.813-.813-.836-1.749c.069-.156.135-.313.196-.471zm-11-18.708h.397c.84 0 1.644.258 2.325.745l4.557 3.255-4.558 3.255c-.68.487-1.484.745-2.324.745h-.397c-2.206 0-4-1.794-4-4s1.794-4 4-4zm4 15c0 3.309-2.691 6-6 6s-6-2.691-6-6c0-2.891 2.086-5.349 4.893-5.877.908.553 1.969.877 3.107.877h.397c.27 0 .536-.026.8-.062 1.734 1.097 2.803 2.995 2.803 5.062zm-10-14v6c0 .552-.448 1-1 1h-3v-8h3c.552 0 1 .448 1 1zm-12 7v-8h2v8zm4-8h2v8h-2zm-31 0h25v8h-25c-2.206 0-4-1.794-4-4s1.794-4 4-4zm41 57c0 .552-.448 1-1 1h-30c-.552 0-1-.448-1-1 0-1.654 1.346-3 3-3h26c1.654 0 3 1.346 3 3zm-8.471-5h-15.058c.858-1.155 1.378-2.536 1.492-4h12.075c.114 1.464.634 2.845 1.491 4zm16.471-6h-48c-1.654 0-3-1.346-3-3v-3h54v3c0 1.654-1.346 3-3 3zm3-8h-54v-28.35c.627.222 1.298.35 2 .35h31.937l.085.178c-.069.156-.135.313-.196.471l-1.826.643v7.416l1.826.644c.062.157.127.314.196.471l-.836 1.749 5.242 5.242 1.749-.836c.156.069.313.135.471.196l.644 1.826h7.416l.644-1.826c.157-.062.314-.127.471-.196l1.749.836 2.428-2.429zm2-20.708-1.393.491-.156.459c-.13.382-.291.767-.477 1.145l-.214.436.639 1.335-3.242 3.242-1.335-.639-.436.214c-.378.186-.763.347-1.145.477l-.459.156-.49 1.392h-4.584l-.491-1.393-.459-.156c-.382-.13-.767-.291-1.145-.477l-.436-.214-1.335.639-3.242-3.242.639-1.335-.214-.436c-.186-.378-.347-.763-.477-1.145l-.156-.459-1.392-.49v-4.584l1.393-.491.156-.459c.13-.382.291-.767.477-1.145l.214-.436-.086-.177h2.617c-1.107 1.379-1.771 3.122-1.771 5 0 4.411 3.589 8 8 8s8-3.589 8-8c0-2.252-.95-4.357-2.556-5.852.148-.088.3-.166.44-.267l2.073-1.481 1.441 1.441-.639 1.335.214.436c.186.378.347.763.477 1.145l.156.459 1.394.492z" fill="#fff"/><path d="m7 23h28v-8h-28zm2-6h24v4h-24z" fill="#fff"/><path d="m7 39h14v-14h-14zm2-12h10v10h-10z" fill="#fff"/><path d="m23 25h2v2h-2z" fill="#fff"/><path d="m27 25h8v2h-8z" fill="#fff"/><path d="m23 29h12v2h-12z" fill="#fff"/><path d="m23 33h12v2h-12z" fill="#fff"/><path d="m23 37h12v2h-12z" fill="#fff"/><path d="m37 39h20v-6h-20zm2-4h16v2h-16z" fill="#fff"/></g></svg>