<?xml version="1.0" encoding="UTF-8"?> <svg xmlns="http://www.w3.org/2000/svg" width="63" height="63" viewBox="0 0 63 63" fill="none"> <mask id="path-1-inside-1" fill="white"> <path d="M31.6283 0.165039C14.3505 0.165039 0.293457 14.2214 0.293457 31.4999C0.293457 48.7784 14.3505 62.8347 31.6283 62.8347C48.9061 62.8347 62.9632 48.7784 62.9632 31.4999C62.9632 14.2214 48.9061 0.165039 31.6283 0.165039ZM31.6283 59.314C16.2918 59.314 3.81423 46.8364 3.81423 31.4999C3.81423 16.1634 16.2918 3.68581 31.6283 3.68581C46.9648 3.68581 59.4424 16.1634 59.4424 31.4999C59.4424 46.8364 46.9648 59.314 31.6283 59.314Z"></path> </mask> <path d="M31.6283 0.165039C14.3505 0.165039 0.293457 14.2214 0.293457 31.4999C0.293457 48.7784 14.3505 62.8347 31.6283 62.8347C48.9061 62.8347 62.9632 48.7784 62.9632 31.4999C62.9632 14.2214 48.9061 0.165039 31.6283 0.165039ZM31.6283 59.314C16.2918 59.314 3.81423 46.8364 3.81423 31.4999C3.81423 16.1634 16.2918 3.68581 31.6283 3.68581C46.9648 3.68581 59.4424 16.1634 59.4424 31.4999C59.4424 46.8364 46.9648 59.314 31.6283 59.314Z" fill="#0F0F0F"></path> <path d="M23.2386 65.7709L65.5218 23.4877L40.7731 -1.26101L-1.51012 41.0222L23.2386 65.7709ZM31.6283 -34.835C-4.97897 -34.835 -34.7065 -5.10912 -34.7065 31.4999H35.2935C35.2935 33.5518 33.6799 35.165 31.6283 35.165V-34.835ZM-34.7065 31.4999C-34.7065 68.1089 -4.97897 97.8347 31.6283 97.8347V27.8347C33.6799 27.8347 35.2935 29.4479 35.2935 31.4999H-34.7065ZM31.6283 97.8347C68.2356 97.8347 97.9632 68.1089 97.9632 31.4999H27.9632C27.9632 29.4479 29.5767 27.8347 31.6283 27.8347V97.8347ZM97.9632 31.4999C97.9632 -5.10912 68.2356 -34.835 31.6283 -34.835V35.165C29.5767 35.165 27.9632 33.5518 27.9632 31.4999H97.9632ZM31.6283 24.314C35.6218 24.314 38.8142 27.5064 38.8142 31.4999H-31.1858C-31.1858 66.1663 -3.03814 94.314 31.6283 94.314V24.314ZM38.8142 31.4999C38.8142 35.4934 35.6218 38.6858 31.6283 38.6858V-31.3142C-3.03813 -31.3142 -31.1858 -3.16655 -31.1858 31.4999H38.8142ZM31.6283 38.6858C27.6348 38.6858 24.4424 35.4934 24.4424 31.4999H94.4424C94.4424 -3.16655 66.2947 -31.3142 31.6283 -31.3142V38.6858ZM24.4424 31.4999C24.4424 27.5064 27.6348 24.314 31.6283 24.314V94.314C66.2947 94.314 94.4424 66.1663 94.4424 31.4999H24.4424Z" fill="#0F0F0F" mask="url(#path-1-inside-1)"></path> <path d="M9.37598 52.8443L52.9723 10.1562" stroke="#0F0F0F" stroke-width="4"></path> </svg> 