<?xml version="1.0" encoding="UTF-8"?> <svg xmlns="http://www.w3.org/2000/svg" width="76" height="58" viewBox="0 0 76 58" fill="none"> <path d="M37.6082 54.6148C36.8974 54.6148 36.3228 54.0386 36.3228 53.3301C36.3228 50.0446 32.8433 49.3338 32.6951 49.3052L5.04552 44.89C4.42122 44.7907 3.9624 44.2529 3.9624 43.6211V2.17535C3.9624 1.80002 4.12637 1.44425 4.41144 1.19979C4.69576 0.955341 5.07184 0.847029 5.44266 0.904946L29.5383 4.59958C38.6327 6.22726 38.8937 10.5063 38.8937 10.9892V53.3301C38.8937 54.0393 38.3175 54.6148 37.6082 54.6148ZM6.5333 42.5245L33.1434 46.7734C34.0264 46.9442 35.2382 47.3977 36.3235 48.2146V10.9892C36.3175 10.9892 35.9467 8.35664 29.1193 7.13512L6.5333 3.67291V42.5245Z" fill="#0F0F0F"></path> <path d="M37.6082 57.705H34.1716C33.4623 57.705 32.8861 57.1289 32.8861 56.4196C32.8861 53.52 27.9549 53.4222 27.9061 53.4222C27.8511 53.4207 27.7962 53.4162 27.7428 53.4086L1.10869 49.7133C0.473111 49.6253 0 49.0822 0 48.4414V6.03057C0 5.32052 0.576158 4.74512 1.28545 4.74512C1.99399 4.74512 2.57015 5.32052 2.57015 6.03057V47.3206L28.0151 50.8513C30.3574 50.8957 34.4446 51.8682 35.2976 55.1334H37.6082C38.3175 55.1334 38.8937 55.7095 38.8937 56.4188C38.8937 57.1281 38.3175 57.705 37.6082 57.705Z" fill="#0F0F0F"></path> <path d="M37.6082 54.6147C36.8974 54.6147 36.3228 54.0385 36.3228 53.33V10.9892C36.3228 10.5063 36.5845 6.22721 45.6458 4.6048L69.7745 0.905652C70.1438 0.848488 70.5214 0.956047 70.8057 1.2005C71.0908 1.44495 71.2548 1.80073 71.2548 2.17606V43.6226C71.2548 44.2544 70.796 44.7922 70.1717 44.8915L42.48 49.3142C42.3799 49.3345 38.8944 50.0837 38.8944 53.3315C38.8937 54.0393 38.3175 54.6147 37.6082 54.6147ZM68.6831 3.67286L46.0655 7.14034C39.2299 8.36411 38.8937 11.0193 38.8921 11.0456L38.8937 48.2115C39.9692 47.3977 41.1682 46.9479 42.0324 46.7809L68.6839 42.5244V3.67286H68.6831Z" fill="#0F0F0F"></path> <path d="M41.0448 57.705H37.6082C36.8974 57.705 36.3228 57.1289 36.3228 56.4196C36.3228 55.7103 36.8974 55.1341 37.6082 55.1341H39.9189C40.7703 51.8682 44.8568 50.8957 47.1998 50.852L72.6463 47.3214V6.03057C72.6463 5.32052 73.2224 4.74512 73.931 4.74512C74.6403 4.74512 75.2164 5.32052 75.2164 6.03057V48.4414C75.2164 49.0822 74.7433 49.6253 74.1077 49.7125L47.4736 53.4079C47.4194 53.4154 47.3638 53.4199 47.3089 53.4214C47.26 53.4214 42.3303 53.5192 42.3303 56.4188C42.3303 57.1289 41.7549 57.705 41.0448 57.705Z" fill="#0F0F0F"></path> </svg> 