<?xml version="1.0" encoding="UTF-8"?> <svg xmlns="http://www.w3.org/2000/svg" width="58" height="59" viewBox="0 0 58 59" fill="none"> <path d="M1.99773 40.8613C1.04141 40.8613 0.266113 41.6366 0.266113 42.5929V56.3232C0.266113 57.2795 1.04141 58.0548 1.99773 58.0548C2.95524 58.0548 3.73054 57.2795 3.73054 56.3232V42.5929C3.73054 41.6366 2.95524 40.8613 1.99773 40.8613Z" fill="#0F0F0F"></path> <path d="M19.8605 32.2158C18.9042 32.2158 18.1289 32.9911 18.1289 33.9486V56.3227C18.1289 57.279 18.9042 58.0543 19.8605 58.0543C20.8168 58.0543 21.5921 57.279 21.5921 56.3227V33.9486C21.5921 32.9911 20.8168 32.2158 19.8605 32.2158Z" fill="#0F0F0F"></path> <path d="M37.7191 22.9971C36.7628 22.9971 35.9863 23.7724 35.9863 24.7299V56.3206C35.9863 57.2769 36.7628 58.0522 37.7191 58.0522C38.6755 58.0522 39.4508 57.2769 39.4508 56.3206V24.7311C39.4508 23.7736 38.6755 22.9971 37.7191 22.9971Z" fill="#0F0F0F"></path> <path d="M55.5805 4.0459C54.623 4.0459 53.8477 4.8212 53.8477 5.77752V56.3208C53.8477 57.2771 54.623 58.0524 55.5805 58.0524C56.5368 58.0524 57.3121 57.2771 57.3121 56.3208V5.77752C57.3121 4.82239 56.5368 4.0459 55.5805 4.0459Z" fill="#0F0F0F"></path> <path d="M37.7169 1.97527C37.5358 1.5239 37.1738 1.17139 36.7189 1.00108C36.2603 0.827207 35.7566 0.859362 35.3243 1.07969L28.0048 4.80612C27.1521 5.24081 26.8127 6.28288 27.2462 7.13678C27.6809 7.99068 28.7277 8.32652 29.5768 7.89421L33.4152 5.93989C25.4324 30.2945 4.34689 25.8416 3.44297 25.6356C2.50332 25.42 1.58273 26.0036 1.36717 26.9349C1.1528 27.8662 1.73517 28.7963 2.66648 29.0119C2.73793 29.0285 4.79825 29.4763 7.91969 29.4763C15.6358 29.4763 29.8222 26.7324 36.3973 7.96448L37.8324 11.5194C38.1051 12.1935 38.753 12.602 39.4401 12.602C39.6557 12.602 39.8736 12.5627 40.0868 12.4769C40.9729 12.1196 41.4028 11.1109 41.0443 10.2225L37.7169 1.97527Z" fill="#0F0F0F"></path> </svg> 