<?xml version="1.0" encoding="UTF-8"?> <svg xmlns="http://www.w3.org/2000/svg" width="63" height="63" viewBox="0 0 63 63" fill="none"> <path d="M31.5 0C14.1311 0 0 14.1304 0 31.5C0 48.8696 14.1311 63 31.5 63C48.8689 63 63 48.8696 63 31.5C63 14.1304 48.8689 0 31.5 0ZM31.5 59.4607C16.0827 59.4607 3.53933 46.9173 3.53933 31.5C3.53933 16.0827 16.0827 3.53933 31.5 3.53933C46.9173 3.53933 59.4607 16.0827 59.4607 31.5C59.4607 46.9173 46.9173 59.4607 31.5 59.4607ZM33.2697 30.7468V9.43867C33.2697 8.46111 32.4776 7.66901 31.5 7.66901C30.5224 7.66901 29.7303 8.46111 29.7303 9.43867V31.5C29.7303 31.9813 29.9264 32.4422 30.274 32.7756L42.4259 44.4561C42.7685 44.7859 43.2102 44.9501 43.6519 44.9501C44.1163 44.9501 44.5806 44.7682 44.9282 44.4065C45.6049 43.7015 45.583 42.5816 44.8787 41.9042L33.2697 30.7468Z" fill="#0F0F0F"></path> </svg> 