<?xml version="1.0" encoding="UTF-8"?> <svg xmlns="http://www.w3.org/2000/svg" width="44" height="61" viewBox="0 0 44 61" fill="none"> <path d="M39.8971 26.0555H37.1629V15.1158C37.1629 6.82037 30.4128 0.0732422 22.1204 0.0732422C13.828 0.0732422 7.07483 6.82037 7.07483 15.1158V26.0555H4.33765C2.07662 26.0555 0.234863 27.8973 0.234863 30.1583V56.1436C0.234863 58.4046 2.07662 60.2464 4.33765 60.2464H39.8971C42.1581 60.2464 43.9999 58.4046 43.9999 56.1436V30.1583C43.9999 27.8973 42.1581 26.0555 39.8971 26.0555ZM9.80902 15.1158C9.80902 8.32972 15.3313 2.80743 22.1174 2.80743C28.9034 2.80743 34.4257 8.32972 34.4257 15.1158V26.0555H9.80902V15.1158ZM41.2627 56.1436C41.2627 56.8983 40.6488 57.5122 39.8941 57.5122H4.33765C3.58297 57.5122 2.96905 56.8983 2.96905 56.1436V30.1583C2.96905 29.4036 3.58297 28.7897 4.33765 28.7897H39.8971C40.6518 28.7897 41.2657 29.4036 41.2657 30.1583V56.1436H41.2627Z" fill="#0F0F0F"></path> <path d="M26.3662 34.3733C24.7221 33.0646 22.5838 32.5915 20.4935 33.0796C18.0468 33.6486 16.0823 35.5922 15.4863 38.0329C14.8185 40.7611 15.8277 43.5342 18.0139 45.1753V49.3051C18.0139 51.5661 19.8556 53.4079 22.1166 53.4079C24.3777 53.4079 26.2194 51.5661 26.2194 49.3051V45.1753C27.9234 43.8906 28.9536 41.8722 28.9536 39.7339C28.9536 37.6316 28.0103 35.679 26.3662 34.3733ZM24.162 43.2587C23.7428 43.5043 23.4822 43.9535 23.4822 44.4416V49.3021C23.4822 50.0568 22.8683 50.6707 22.1136 50.6707C21.359 50.6707 20.7451 50.0568 20.7451 49.3021V44.4416C20.7451 43.9535 20.4845 43.5043 20.0652 43.2587C18.4451 42.3154 17.6904 40.5185 18.1396 38.6798C18.487 37.2543 19.6819 36.0743 21.1104 35.7419C22.4011 35.4455 23.6589 35.718 24.6622 36.5116C25.6504 37.2962 26.2164 38.4671 26.2164 39.7279C26.2194 41.1923 25.4498 42.51 24.162 43.2587Z" fill="#0F0F0F"></path> </svg> 