<svg width="79" height="73" viewBox="0 0 79 73" fill="none" xmlns="http://www.w3.org/2000/svg">
<path fill-rule="evenodd" clip-rule="evenodd" d="M24 35.3295C24 34.116 24.6492 32.9995 25.6912 32.4144C26.7316 31.8299 28.0033 31.8659 29.0106 32.5084L39.466 39.1787C40.4259 39.7911 41 40.8447 41 41.9999C41 43.1552 40.4259 44.2087 39.466 44.821L29.0105 51.4915C28.4802 51.8299 27.8767 52 27.2722 52C26.7284 52 26.1841 51.8624 25.6912 51.5855C24.6492 51.0004 24 49.884 24 48.6704V35.3295ZM27.3424 35.4602V48.5393L37.5927 41.9997L27.3424 35.4602Z" fill="#C9252E"/>
<path fill-rule="evenodd" clip-rule="evenodd" d="M10.1006 72.6473L16.239 68.0763H57.0163C59.7567 68.0763 61.9778 65.7966 61.9778 63.0039V53.6634H62.761L68.8994 58.2344C69.2116 58.4668 69.5836 58.5871 69.9596 58.5871C70.1774 58.5871 70.3965 58.5467 70.6056 58.4646C71.1756 58.2406 71.5936 57.7376 71.7186 57.1308L72.434 53.6634H74.0385C76.7789 53.6634 79 51.3836 79 48.591V5.0724C78.9997 2.27974 76.7788 0 74.0382 0H21.9835C19.2431 0 17.0221 2.27974 17.0221 5.07256V14.4131H4.96147C2.2209 14.4129 0 16.6928 0 19.4855V63.0039C0 65.7966 2.22091 68.0763 4.96147 68.0763H6.56598L7.28142 71.5438C7.40645 72.1506 7.8244 72.6535 8.39438 72.8775C8.60345 72.9596 8.82258 73 9.04035 73C9.4164 73 9.78834 72.8797 10.1006 72.6473ZM15.6525 64.4088C15.2711 64.4088 14.9 64.5325 14.5925 64.7614L10.2268 68.0123L9.78377 65.8648C9.60931 65.0193 8.87795 64.4086 8.02469 64.4086H4.96147C4.21335 64.4086 3.59542 63.7829 3.59542 63.0037V19.4855C3.59542 18.7061 4.21323 18.0805 4.96147 18.0805H57.0162C57.7643 18.0805 58.3822 18.7061 58.3822 19.4855V63.0039C58.3822 63.7831 57.7644 64.4088 57.0162 64.4088H15.6525ZM63.3472 49.9958H61.9776V19.4856C61.9776 16.693 59.7567 14.4131 57.0162 14.4131H20.6175V5.0724C20.6175 4.29303 21.2353 3.6674 21.9835 3.6674H74.0382C74.7863 3.6674 75.4043 4.29305 75.4043 5.0724V48.5908C75.4043 49.3702 74.7865 49.9957 74.0382 49.9957H70.975C70.1216 49.9957 69.3902 50.6062 69.2159 51.4519L68.7729 53.5993L64.4072 50.3484C64.0997 50.1196 63.7288 49.9958 63.3472 49.9958Z" fill="#979797"/>
</svg>
