<svg width="65" height="72" viewBox="0 0 65 72" fill="none" xmlns="http://www.w3.org/2000/svg">
<path fill-rule="evenodd" clip-rule="evenodd" d="M28.3311 17.1045V3.97632H8.87769C7.45231 3.97632 6.10008 4.58122 5.11427 5.6332C4.13073 6.68276 3.58983 8.09159 3.58983 9.54635V62.4537C3.58983 63.9084 4.13073 65.3172 5.11427 66.3668C6.10008 67.4188 7.45231 68.0237 8.87769 68.0237H33.6674C34.1205 68.0237 34.5698 68.2151 34.9122 68.5805C35.257 68.9484 35.4623 69.462 35.4623 70.0118C35.4623 70.5616 35.257 71.0753 34.9122 71.4431C34.5698 71.8086 34.1205 72 33.6674 72H8.87769C6.54613 72 4.29529 71.0123 2.62455 69.2294C0.951539 67.4441 0 65.008 0 62.4537V9.54635C0 6.99199 0.951539 4.55591 2.62455 2.7706C4.29529 0.987715 6.54613 0 8.87769 0H30.1374C30.2923 0.0441956 30.4432 0.107605 30.5871 0.189712L31.1338 0.501677L31.3744 0.456726C31.433 0.50302 31.4896 0.552911 31.5439 0.606288L52.75 23.2358C52.8254 23.3231 52.8946 23.4173 52.9567 23.5175V23.6978L53.0414 23.9664C53.1004 24.1538 53.1433 24.3471 53.1692 24.5437V36C53.1692 36.5498 52.9639 37.0634 52.6192 37.4313C52.2767 37.7967 51.8274 37.9882 51.3743 37.9882C50.9212 37.9882 50.4719 37.7967 50.1295 37.4313C49.7847 37.0634 49.5794 36.5498 49.5794 36V26.6509H37.2088C34.8772 26.6509 32.6264 25.6632 30.9556 23.8803C29.2826 22.095 28.3311 19.6589 28.3311 17.1045ZM46.94 22.6746L31.9209 6.64734V17.1045C31.9209 18.5593 32.4618 19.9681 33.4454 21.0177C34.4312 22.0697 35.7834 22.6746 37.2088 22.6746H46.94Z" fill="#979797"/>
<path d="M14.7156 23.2314C15.0581 22.866 15.5074 22.6746 15.9605 22.6746H19.5018C19.9549 22.6746 20.4042 22.866 20.7467 23.2314C21.0914 23.5993 21.2968 24.1129 21.2968 24.6627C21.2968 25.2125 21.0914 25.7261 20.7467 26.094C20.4042 26.4595 19.9549 26.6509 19.5018 26.6509H15.9605C15.5074 26.6509 15.0581 26.4595 14.7156 26.094C14.3709 25.7261 14.1655 25.2125 14.1655 24.6627C14.1655 24.1129 14.3709 23.5993 14.7156 23.2314Z" fill="#979797"/>
<path d="M14.7156 38.3478C15.0581 37.9823 15.5074 37.7909 15.9605 37.7909H37.2088C37.6619 37.7909 38.1112 37.9823 38.4536 38.3478C38.7984 38.7157 39.0037 39.2293 39.0037 39.7791C39.0037 40.3289 38.7984 40.8425 38.4536 41.2104C38.1112 41.5758 37.6619 41.7673 37.2088 41.7673H15.9605C15.5074 41.7673 15.0581 41.5758 14.7156 41.2104C14.3709 40.8425 14.1655 40.3289 14.1655 39.7791C14.1655 39.2293 14.3709 38.7157 14.7156 38.3478Z" fill="#979797"/>
<path d="M31.3709 56.3268C31.0284 56.6922 30.5791 56.8836 30.126 56.8836H15.9605C15.5074 56.8836 15.0581 56.6922 14.7156 56.3268C14.3709 55.9589 14.1655 55.4453 14.1655 54.8955C14.1655 54.3457 14.3709 53.832 14.7156 53.4642C15.0581 53.0987 15.5074 52.9073 15.9605 52.9073H30.126C30.5791 52.9073 31.0284 53.0987 31.3709 53.4642C31.7156 53.832 31.9209 54.3457 31.9209 54.8955C31.9209 55.4453 31.7156 55.9589 31.3709 56.3268Z" fill="#979797"/>
<path d="M48.7624 64.6616H54.5586C55.0017 64.6616 55.3609 65.0239 55.3609 65.4709V67.1906C55.3609 67.6376 55.0017 68 54.5586 68H42.8023C42.3592 68 42 67.6376 42 67.1906V65.8993C42 65.728 42.0539 65.5611 42.1539 65.4227L49.0741 55.8436C49.5464 55.1899 49.0835 54.2718 48.2816 54.2718H43.1495C42.7064 54.2718 42.3472 53.9094 42.3472 53.4625V51.7427C42.3472 51.2957 42.7064 50.9334 43.1495 50.9334H54.2114C54.6545 50.9334 55.0138 51.2957 55.0138 51.7427V53.035C55.0138 53.2058 54.9602 53.3722 54.8608 53.5104L47.9688 63.0914C47.4983 63.7453 47.9615 64.6616 48.7624 64.6616Z" fill="#C9252E"/>
<path d="M65 52.761V54.6098C65 54.8779 64.8684 55.1287 64.6485 55.2793L63.4161 56.1238C63.1474 56.3079 62.9865 56.6144 62.9865 56.9421V67.1906C62.9865 67.6376 62.6273 68 62.1842 68H60.2178C59.7747 68 59.4155 67.6376 59.4155 67.1906V60.2605C59.4155 59.6579 58.7495 59.2987 58.2527 59.6334C57.8744 59.8882 57.3672 59.6146 57.3672 59.1558V57.3261C57.3672 57.0557 57.5011 56.8031 57.724 56.653L58.9794 55.8073C59.2519 55.6238 59.4155 55.3151 59.4155 54.9847V43.8094C59.4155 43.3624 59.7747 43 60.2178 43H62.1842C62.6273 43 62.9865 43.3624 62.9865 43.8094V51.6853C62.9865 52.2794 63.6453 52.6314 64.1325 52.2976C64.5012 52.0449 65 52.3113 65 52.761Z" fill="#C9252E"/>
</svg>
