<svg width="16" height="16" viewBox="0 0 16 16" fill="none" xmlns="http://www.w3.org/2000/svg">
<path d="M13.4833 4.55229C13.4833 4.49162 13.4468 4.43692 13.3907 4.4137C13.3347 4.39049 13.2702 4.40332 13.2273 4.44622L2.17008 15.5034C1.70796 15.9655 0.958711 15.9655 0.49659 15.5034C0.0344699 15.0413 0.0344699 14.292 0.49659 13.8299L11.5538 2.77273C11.5967 2.72983 11.6095 2.66532 11.5863 2.60926C11.5631 2.55321 11.5084 2.51667 11.4477 2.51667L4 2.51667C3.34646 2.51667 2.81667 1.98687 2.81667 1.33333C2.81667 0.679796 3.34646 0.15 4 0.15L14.6667 0.150001C15.3202 0.150001 15.85 0.679797 15.85 1.33333V12C15.85 12.6535 15.3202 13.1833 14.6667 13.1833C14.0131 13.1833 13.4833 12.6535 13.4833 12V4.55229Z" fill="white" stroke="#E30613" stroke-width="0.3" stroke-miterlimit="10" stroke-linecap="round" stroke-linejoin="round"/>
</svg>
