<svg width="18" height="18" viewBox="0 0 18 18" fill="none" xmlns="http://www.w3.org/2000/svg">
<path d="M14.5819 9.75027C14.4169 9.75027 14.2444 9.69777 14.0794 9.66027C13.7453 9.58664 13.4169 9.48888 13.0969 9.36777C12.749 9.24119 12.3665 9.24776 12.0231 9.38622C11.6798 9.52468 11.3997 9.78524 11.2369 10.1178L11.0719 10.4553C10.3414 10.0489 9.67014 9.54419 9.07691 8.95527C8.48798 8.36203 7.98327 7.69077 7.57691 6.96027L7.89191 6.75027C8.22443 6.58745 8.48499 6.30742 8.62345 5.96404C8.76191 5.62066 8.76848 5.2382 8.64191 4.89027C8.52282 4.56958 8.42511 4.24137 8.34941 3.90777C8.31191 3.74277 8.28191 3.57027 8.25941 3.39777C8.16833 2.86948 7.89162 2.39107 7.47912 2.0487C7.06662 1.70632 6.54543 1.52247 6.00941 1.53027H3.75941C3.43618 1.52723 3.11609 1.59388 2.82094 1.72567C2.52578 1.85745 2.26249 2.05129 2.04898 2.29398C1.83547 2.53667 1.67676 2.82251 1.58365 3.13205C1.49054 3.44159 1.46522 3.76756 1.50941 4.08777C1.90896 7.2298 3.34393 10.1492 5.58765 12.3847C7.83136 14.6203 10.7559 16.0446 13.8994 16.4328H14.1844C14.7375 16.4336 15.2715 16.2307 15.6844 15.8628C15.9217 15.6505 16.1112 15.3904 16.2405 15.0995C16.3698 14.8086 16.4359 14.4936 16.4344 14.1753V11.9253C16.4252 11.4043 16.2355 10.9027 15.8977 10.506C15.5598 10.1094 15.0948 9.84224 14.5819 9.75027ZM14.9569 14.2503C14.9568 14.3568 14.934 14.462 14.89 14.559C14.846 14.656 14.7819 14.7425 14.7019 14.8128C14.6181 14.8851 14.5201 14.9392 14.4142 14.9715C14.3083 15.0037 14.1968 15.0136 14.0869 15.0003C11.2781 14.6401 8.66908 13.3551 6.67144 11.348C4.6738 9.34084 3.40121 6.72577 3.05441 3.91527C3.04247 3.80541 3.05293 3.69427 3.08516 3.58856C3.11738 3.48286 3.17071 3.38478 3.24191 3.30027C3.31219 3.22027 3.3987 3.15615 3.49569 3.11218C3.59268 3.06821 3.69792 3.0454 3.80441 3.04527H6.05441C6.22882 3.04139 6.39912 3.09843 6.53601 3.20657C6.6729 3.31471 6.76781 3.46719 6.80441 3.63777C6.83441 3.84277 6.87191 4.04527 6.91691 4.24527C7.00355 4.64063 7.11885 5.02915 7.26191 5.40777L6.21191 5.89527C6.12213 5.93646 6.04137 5.99498 5.97427 6.06746C5.90718 6.13995 5.85506 6.22498 5.82091 6.31766C5.78676 6.41035 5.77126 6.50887 5.77529 6.60756C5.77932 6.70625 5.80281 6.80318 5.84441 6.89277C6.92381 9.20483 8.78234 11.0634 11.0944 12.1428C11.277 12.2178 11.4818 12.2178 11.6644 12.1428C11.7579 12.1093 11.8439 12.0576 11.9173 11.9907C11.9907 11.9237 12.05 11.8428 12.0919 11.7528L12.5569 10.7028C12.9446 10.8414 13.3403 10.9566 13.7419 11.0478C13.9419 11.0928 14.1444 11.1303 14.3494 11.1603C14.52 11.1969 14.6725 11.2918 14.7806 11.4287C14.8887 11.5655 14.9458 11.7359 14.9419 11.9103L14.9569 14.2503Z" fill="white"/>
</svg>
