<svg width="89" height="18" viewBox="0 0 89 18" fill="none" xmlns="http://www.w3.org/2000/svg">
<g clip-path="url(#clip0)">
<path d="M89 8.9954C89 13.9615 84.9286 17.9884 79.9057 17.9884C74.8829 17.9884 70.8138 13.9615 70.8138 8.9954C70.8138 4.02931 74.8852 0.00244141 79.9057 0.00244141C84.9286 0.00478944 89 4.02931 89 8.9954Z" fill="#C9252E"/>
<path d="M77.308 8.98625C77.308 7.56569 78.473 6.41515 79.9084 6.41515C80.6582 6.41515 81.3296 6.72979 81.8042 7.23227C81.9133 7.34732 82.0106 7.47177 82.096 7.60326L82.0984 7.60795C82.1387 7.67135 82.179 7.73709 82.2146 7.80519L82.2241 7.82632C82.2573 7.88972 82.2882 7.95311 82.3143 8.01886L82.3309 8.06347C82.3546 8.12217 82.376 8.18322 82.3949 8.24427C82.4021 8.2701 82.4092 8.29827 82.4163 8.3241C82.4305 8.37576 82.4448 8.42741 82.4543 8.48142C82.4638 8.52368 82.4685 8.5683 82.4732 8.61056C82.478 8.65048 82.4875 8.68805 82.4899 8.72796C82.4993 8.81249 82.5041 8.89702 82.5041 8.9839C82.5041 10.4045 81.3391 11.555 79.9037 11.555C78.473 11.5573 77.308 10.4068 77.308 8.98625ZM74.7527 8.98625C74.7527 11.8015 77.0613 14.0862 79.9084 14.0862C80.8575 14.0862 81.7448 13.8326 82.5088 13.3888V14.0885H85.0642V10.3458V8.98625V5.02042V3.88867C84.1934 3.88867 83.4033 4.22914 82.8173 4.77858C81.9892 4.2174 80.988 3.88867 79.9084 3.88867C77.0613 3.88867 74.7527 6.17096 74.7527 8.98625Z" fill="white"/>
<path d="M6.63152 2.93115C5.24353 2.93115 3.95519 3.3538 2.88987 4.07699C2.13775 3.37023 1.11988 2.93115 0 2.93115V4.38928V9.4939V11.2432V18.0008H3.28848V15.1597C4.27075 15.7279 5.41199 16.0566 6.63152 16.0566C10.2925 16.0566 13.263 13.1193 13.263 9.4939C13.263 5.86854 10.2925 2.93115 6.63152 2.93115ZM6.63152 12.8023C4.78561 12.8023 3.28848 11.3207 3.28848 9.4939C3.28848 9.38354 3.29559 9.27318 3.30508 9.16517C3.30983 9.11352 3.31932 9.06421 3.32644 9.0149C3.33356 8.95855 3.34067 8.90219 3.35254 8.84819C3.36677 8.7801 3.38575 8.71435 3.40236 8.64626C3.41185 8.61104 3.41897 8.57582 3.42846 8.54294C3.45219 8.46311 3.48066 8.38797 3.5115 8.31049C3.51862 8.29171 3.52574 8.27057 3.53286 8.25179C3.56845 8.16726 3.60641 8.08508 3.64912 8.0029C3.65386 7.99351 3.65861 7.98411 3.66335 7.97707C3.70843 7.89019 3.75826 7.80566 3.81283 7.72348C3.8152 7.72113 3.8152 7.71879 3.81757 7.71644C3.92909 7.54503 4.05484 7.38537 4.19482 7.23744C4.80459 6.59173 5.6706 6.18552 6.63389 6.18552C8.47981 6.18552 9.97694 7.66713 9.97694 9.4939C9.97457 11.3207 8.47743 12.8023 6.63152 12.8023Z" fill="#C9252E"/>
<path d="M65.5865 12.7709C64.4429 12.7709 63.6481 11.874 63.6481 10.8526V6.50404H68.5785V3.25437H63.6481V0H60.3596C60.3596 0 60.3596 10.8573 60.3596 10.9583C60.3596 13.4824 62.578 16.0253 65.4323 16.0253C67.8263 16.0253 69.0387 14.7409 69.0387 14.7409L67.7741 11.7308C67.7741 11.7308 66.5973 12.7709 65.5865 12.7709Z" fill="#C9252E"/>
<path d="M38.513 2.91748C36.1854 2.91748 34.9113 4.57754 34.9113 4.57754C34.9113 4.57754 33.706 2.91748 31.6276 2.91748C31.6205 2.91748 31.6205 2.91748 31.6205 2.91748V15.7354H34.9113V8.60441C34.9113 7.33413 36.0312 6.08263 37.5141 6.08263C38.6245 6.08263 40.1145 6.99366 40.1145 8.60441V15.7354H43.4054V8.06202V7.64172C43.4054 5.42518 41.493 2.91748 38.513 2.91748Z" fill="#C9252E"/>
<path d="M25.0429 3.25439H28.3338V10.3854C28.3338 13.7571 25.3704 16.0512 22.4496 16.0512C19.5313 16.0512 16.5655 13.7571 16.5655 10.3854V3.25439H19.8469V10.2327C19.8469 11.7331 21.0522 12.7991 22.4473 12.7991C23.8376 12.7991 25.0406 11.7331 25.0406 10.2327V3.25439H25.0429Z" fill="#C9252E"/>
<path d="M58.5924 3.25437H54.2386L51.2016 7.37281H49.9773V0H46.6936V15.7341H49.9773V10.6272H51.0759L54.6182 15.7341H58.7158L53.7641 9L58.5924 3.25437Z" fill="#C9252E"/>
</g>
<defs>
<clipPath id="clip0">
<rect width="89" height="18" fill="white"/>
</clipPath>
</defs>
</svg>
