<svg width="58" height="73" viewBox="0 0 58 73" fill="none" xmlns="http://www.w3.org/2000/svg">
<path fill-rule="evenodd" clip-rule="evenodd" d="M45.1889 42.2927L45.1909 42.2935C53.6178 45.5193 58 50.8741 58 56.2372C58 60.5645 55.1917 64.7093 49.9624 67.8676C44.7556 71.0124 37.3883 73.0002 29 73.0002C20.6117 73.0002 13.2444 71.0124 8.03758 67.8676C2.80833 64.7093 0 60.5645 0 56.2372C0 50.8741 4.3822 45.5193 12.8091 42.2935L12.8111 42.2927C13.3223 42.0963 13.8968 42.1043 14.4011 42.3141C14.9036 42.5231 15.2773 42.9065 15.4632 43.3574C15.6479 43.8057 15.6409 44.3027 15.4427 44.7469C15.2433 45.1938 14.8577 45.5678 14.3485 45.7636C11.3737 46.9046 8.85936 48.3961 7.05634 50.121C5.26993 51.8301 4.02778 53.9281 4.02778 56.2372C4.02778 58.128 4.87359 59.8966 6.16438 61.4126C7.4586 62.9326 9.27841 64.2982 11.4663 65.4418C15.8464 67.7313 21.9297 69.252 29 69.252C36.0703 69.252 42.1536 67.7313 46.5337 65.4418C48.7216 64.2982 50.5414 62.9326 51.8356 61.4126C53.1264 59.8966 53.9722 58.128 53.9722 56.2372C53.9722 53.9281 52.7301 51.8301 50.9437 50.121C49.1408 48.3963 46.6267 46.9049 43.6523 45.764C43.4007 45.6673 43.1756 45.5254 42.9885 45.3497C42.8015 45.1741 42.6562 44.9686 42.5573 44.7469C42.4585 44.5254 42.4069 44.29 42.4035 44.0537C42.4 43.8173 42.4447 43.581 42.5368 43.3574C42.629 43.1337 42.7679 42.925 42.9491 42.745C43.1305 42.5649 43.3507 42.4173 43.5989 42.3141C43.8473 42.2108 44.1167 42.1548 44.3913 42.1511C44.6659 42.1474 44.9372 42.196 45.1889 42.2927Z" fill="#979797"/>
<path d="M26.9102 26.839C26.9102 25.7926 27.8003 24.9443 28.8983 24.9443C29.9964 24.9443 30.8865 25.7926 30.8865 26.839V55.9763C30.8865 57.0227 29.9964 57.8709 28.8983 57.8709C27.8003 57.8709 26.9102 57.0227 26.9102 55.9763V26.839Z" fill="#979797"/>
<path fill-rule="evenodd" clip-rule="evenodd" d="M28.4006 22.3457C33.7589 22.3457 38.1008 18.1476 38.1008 12.9711C38.1008 7.79458 33.7589 3.59643 28.4006 3.59643C23.0423 3.59643 18.7003 7.79458 18.7003 12.9711C18.7003 18.1476 23.0423 22.3457 28.4006 22.3457ZM28.4006 25.9422C35.8123 25.9422 41.8207 20.1348 41.8207 12.9711C41.8207 5.80735 35.8123 0 28.4006 0C20.9889 0 14.9805 5.80735 14.9805 12.9711C14.9805 20.1348 20.9889 25.9422 28.4006 25.9422Z" fill="#C9252E"/>
</svg>
