<svg width="76" height="72" viewBox="0 0 76 72" fill="none" xmlns="http://www.w3.org/2000/svg">
<path fill-rule="evenodd" clip-rule="evenodd" d="M2.21375 24.8556C1.27578 24.6069 0.311674 25.1578 0.0603473 26.0862C-0.190979 27.0146 0.365648 27.9688 1.30361 28.2176L32.7574 36.5594C31.3728 36.8244 30.1032 37.7343 29.509 39.2892L19.259 66.1097C18.1713 68.9558 20.296 71.9996 23.3703 71.9996H43.8703C46.9447 71.9996 49.0693 68.9558 47.9816 66.1097L37.7316 39.2892C37.4609 38.5809 37.0501 38.0065 36.5522 37.5659L67.9797 45.9008C68.9177 46.1495 69.8818 45.5986 70.1331 44.6702C70.3844 43.7418 69.8278 42.7876 68.8898 42.5388L2.21375 24.8556ZM23.3703 68.5191C22.7555 68.5191 22.3305 67.9103 22.5481 67.3411L32.7981 40.5206C33.0846 39.7709 34.1561 39.7709 34.4426 40.5206L44.6926 67.3411C44.9101 67.9103 44.4852 68.5191 43.8703 68.5191H23.3703Z" fill="#979797"/>
<path fill-rule="evenodd" clip-rule="evenodd" d="M27.207 14.1943C25.6467 20.2085 19.6613 23.7775 13.8382 22.1661C8.01515 20.5546 4.55948 14.3728 6.11976 8.35865C7.68005 2.34451 13.6654 -1.22454 19.4885 0.38694C25.3116 1.99842 28.7672 8.18021 27.207 14.1943ZM14.7354 18.7079C18.7092 19.8076 22.7939 17.372 23.8587 13.2677C24.9235 9.16349 22.5652 4.94483 18.5913 3.8451C14.6175 2.74537 10.5329 5.18101 9.46806 9.28526C8.40327 13.3895 10.7615 17.6082 14.7354 18.7079Z" fill="#C9252E"/>
<path fill-rule="evenodd" clip-rule="evenodd" d="M60.9297 11.455L72.0995 14.4174C74.9054 15.1615 76.5705 18.0161 75.8187 20.7933L72.8257 31.849C72.0739 34.6261 69.1898 36.2742 66.384 35.5301L55.2141 32.5677C52.4083 31.8236 50.7432 28.969 51.495 26.1918L54.4879 15.1362C55.2398 12.359 58.1238 10.7109 60.9297 11.455ZM60.0221 14.8074C59.0869 14.5593 58.1255 15.1087 57.8749 16.0344L54.8819 27.0901C54.6313 28.0158 55.1864 28.9674 56.1217 29.2154L67.2915 32.1778C68.2268 32.4258 69.1881 31.8764 69.4387 30.9507L72.4317 19.895C72.6823 18.9693 72.1273 18.0178 71.192 17.7697L60.0221 14.8074Z" fill="#C9252E"/>
</svg>
