<svg width="165" height="90" viewBox="0 0 165 90" fill="none" xmlns="http://www.w3.org/2000/svg">
<path d="M73.809 27.0633L74.8044 32.1632H83.3658L83.3345 32.2521L72.9629 63.237H91.4422L90.2298 57.8077H80.8433L80.8734 57.7216L90.885 27.0633H73.809Z" fill="url(#paint0_radial)"/>
<path d="M67.5948 36.2391H58.7969L59.4224 40.3936V53.8175H64.3575V49.6023H64.423C64.423 49.6023 67.3035 49.6059 67.5948 49.6059C71.2012 49.6059 74.231 46.4844 74.231 42.8804C74.231 39.2704 71.2012 36.2391 67.5948 36.2391ZM67.1555 45.7066C67.1237 45.7066 64.423 45.7121 64.423 45.7121H64.3575V40.4023H64.423C64.423 40.4023 67.0638 40.3971 67.1555 40.3971C68.539 40.3971 69.7594 41.6136 69.7594 42.9963C69.759 44.3877 68.539 45.7066 67.1555 45.7066Z" fill="url(#paint1_radial)"/>
<path d="M102.03 46.6732C102.03 48.3143 100.689 49.5502 99.1599 49.5502C97.6307 49.5502 96.2909 48.3143 96.2909 46.6732C96.2909 46.5331 96.296 36.7815 96.2972 35.8242L91.3145 36.6323V46.4383C91.3145 50.8464 94.8665 54.3004 99.1603 54.3004C103.454 54.3004 107.007 50.8468 107.007 46.4383V35.8246L102.019 36.6327C102.02 37.4359 102.03 46.5399 102.03 46.6732Z" fill="url(#paint2_radial)"/>
<path d="M83.0042 0C58.1887 0.00515939 38 20.1954 38 45.0062C38 69.8153 58.1887 90 83.0042 90C107.812 90 127.997 69.8153 128 45.0062C127.997 20.1954 107.811 0.00476251 83.0042 0ZM83.005 76.6431C65.5845 76.6165 51.3878 62.4211 51.3573 45.0026C51.3878 27.5849 65.5849 13.3886 83.0042 13.3577H83.005C100.416 13.3886 114.61 27.5849 114.647 45.0026C114.609 62.4211 100.416 76.6161 83.005 76.6431Z" fill="url(#paint3_radial)"/>
<defs>
<radialGradient id="paint0_radial" cx="0" cy="0" r="1" gradientUnits="userSpaceOnUse" gradientTransform="translate(56.4548 16.2165) scale(83.7599)">
<stop stop-color="#84D0F0"/>
<stop offset="0.15" stop-color="#00A8E4"/>
<stop offset="0.333" stop-color="#0078BE"/>
<stop offset="0.5" stop-color="#00509E"/>
<stop offset="1" stop-color="#001C54"/>
</radialGradient>
<radialGradient id="paint1_radial" cx="0" cy="0" r="1" gradientUnits="userSpaceOnUse" gradientTransform="translate(56.83 16.2157) scale(83.0937)">
<stop stop-color="#84D0F0"/>
<stop offset="0.15" stop-color="#00A8E4"/>
<stop offset="0.333" stop-color="#0078BE"/>
<stop offset="0.5" stop-color="#00509E"/>
<stop offset="1" stop-color="#001C54"/>
</radialGradient>
<radialGradient id="paint2_radial" cx="0" cy="0" r="1" gradientUnits="userSpaceOnUse" gradientTransform="translate(56.8331 16.0402) scale(83.2331)">
<stop stop-color="#84D0F0"/>
<stop offset="0.15" stop-color="#00A8E4"/>
<stop offset="0.333" stop-color="#0078BE"/>
<stop offset="0.5" stop-color="#00509E"/>
<stop offset="1" stop-color="#001C54"/>
</radialGradient>
<radialGradient id="paint3_radial" cx="0" cy="0" r="1" gradientUnits="userSpaceOnUse" gradientTransform="translate(56.8306 16.2174) scale(83.0913)">
<stop stop-color="#84D0F0"/>
<stop offset="0.15" stop-color="#00A8E4"/>
<stop offset="0.333" stop-color="#0078BE"/>
<stop offset="0.5" stop-color="#00509E"/>
<stop offset="1" stop-color="#001C54"/>
</radialGradient>
</defs>
</svg>
