<svg width="73" height="73" viewBox="0 0 73 73" fill="none" xmlns="http://www.w3.org/2000/svg">
<path fill-rule="evenodd" clip-rule="evenodd" d="M57.0171 54.4482L72.4719 69.7896C72.8106 70.1465 73 70.6204 73 71.1137C73 71.6083 72.8096 72.0835 72.469 72.4407C72.2924 72.6167 72.0832 72.7565 71.8533 72.8524C71.6196 72.9499 71.3689 73 71.1158 73C70.8627 73 70.6121 72.9499 70.3784 72.8524C70.1447 72.755 69.9325 72.6121 69.754 72.4321L54.4001 57.0665L53.0565 58.1449C46.545 63.3712 38.2804 65.902 29.9619 65.2173C21.6435 64.5325 13.903 60.6842 8.33224 54.4632C2.76144 48.2421 -0.216115 40.1211 0.0122255 31.7701C0.240566 23.4191 3.65742 15.4733 9.55979 9.56644C15.4621 3.65964 23.4012 0.240712 31.7447 0.0122331C40.0881 -0.216246 48.2021 2.76307 54.4183 8.33797C60.6346 13.9129 64.4805 21.6598 65.1648 29.9858C65.8492 38.3118 63.3199 46.5836 58.0973 53.1003L57.0171 54.4482ZM16.7167 56.7067C21.4529 59.8737 27.0212 61.5641 32.7176 61.5641C40.3563 61.5641 47.6818 58.5274 53.0827 53.1224C58.4835 47.7174 61.5174 40.3871 61.5174 32.7439C61.5174 27.0441 59.8285 21.4722 56.6641 16.7328C53.4998 11.9934 49.0019 8.29921 43.7393 6.11769C38.4766 3.93617 32.6857 3.36537 27.0988 4.47751C21.5119 5.58966 16.3802 8.33476 12.3525 12.3655C8.32493 16.3961 5.58225 21.5313 4.47112 27.1216C3.35998 32.7119 3.93025 38.5064 6.10985 43.7725C8.28946 49.0385 11.9806 53.5397 16.7167 56.7067Z" fill="#979797"/>
<path d="M45.9896 43.1465C45.7296 40.7981 44.8321 38.5755 43.3893 36.6968C42.0891 35.0026 40.3947 33.6606 38.457 32.7716C39.4971 31.7987 40.252 30.5826 40.6631 29.2071C41.1328 27.6052 41.0909 25.9361 40.5456 24.3594C40.0004 22.7826 38.9854 21.4406 37.6265 20.4761C36.2592 19.5116 34.6487 19 32.9794 19C31.3017 19 29.6996 19.5116 28.3407 20.4761C26.9734 21.4406 25.9584 22.7826 25.4132 24.3594C24.8679 25.9361 24.826 27.6135 25.2957 29.2071C25.6984 30.5826 26.4617 31.8071 27.5018 32.7716C25.5725 33.6606 23.8865 35.011 22.5947 36.6968C21.1603 38.5671 20.2711 40.7897 20.0111 43.1297C19.9859 43.3477 20.0027 43.5742 20.0698 43.7839C20.1285 43.9935 20.2376 44.1948 20.3718 44.371C20.657 44.7232 21.0596 44.9413 21.5042 44.9916C21.5629 45 21.6217 45 21.6888 45C22.0746 45 22.4437 44.8658 22.7457 44.631C23.098 44.3458 23.3161 43.9516 23.3664 43.4987C23.6348 41.1419 24.7589 38.9697 26.5372 37.3929C28.3155 35.8077 30.6139 34.9355 32.9962 34.9355C35.3868 34.9355 37.6768 35.8077 39.4552 37.3929C41.2335 38.9781 42.3575 41.1419 42.6259 43.4987C42.6679 43.9097 42.8692 44.2871 43.1796 44.5639C43.4899 44.8406 43.8842 44.9832 44.2952 44.9832H44.4378C44.4546 44.9832 44.4714 44.9832 44.4881 44.9832C44.9327 44.9329 45.327 44.7148 45.6122 44.3626C45.9058 44.0271 46.04 43.591 45.9896 43.1465ZM37.6181 26.9677C37.6181 28.2006 37.14 29.3581 36.2592 30.2303C35.3785 31.1026 34.2209 31.5806 32.9794 31.5806C32.0567 31.5806 31.1675 31.3123 30.4042 30.8006C29.6409 30.289 29.0453 29.5761 28.693 28.729C28.3407 27.8819 28.2484 26.9677 28.433 26.0703C28.6091 25.1729 29.0537 24.3594 29.6996 23.7135C30.3539 23.0677 31.1759 22.6316 32.0735 22.4471C32.3671 22.3884 32.6774 22.3548 32.9794 22.3548C33.5917 22.3548 34.1873 22.4723 34.7577 22.7071C35.6049 23.0594 36.3263 23.6465 36.838 24.4097C37.3497 25.1729 37.6181 26.0535 37.6181 26.9677Z" fill="#C9252E"/>
</svg>
