<svg width="16" height="16" viewBox="0 0 16 16" fill="none" xmlns="http://www.w3.org/2000/svg">
<g clip-path="url(#clip0)">
<path d="M16.0707 6.0592C16.0248 5.91954 15.8934 5.8244 15.7442 5.8244H10.1771L8.54118 0.663638C8.4515 0.382954 7.97715 0.382954 7.8875 0.663638L6.25154 5.8244H0.685218C0.535987 5.8244 0.404563 5.91954 0.358712 6.0592C0.314209 6.19886 0.364873 6.35133 0.486029 6.43704L5.06394 9.65939L3.10286 14.8147C3.05014 14.9537 3.09532 15.1103 3.21442 15.2007C3.33419 15.2918 3.4978 15.2931 3.62239 15.2081L8.21468 11.9743L12.807 15.2081C12.8672 15.25 12.9363 15.2709 13.0062 15.2709C13.0794 15.2709 13.1533 15.2479 13.2149 15.2007C13.334 15.1103 13.3792 14.9537 13.3265 14.8147L11.3654 9.65939L15.9433 6.43704C16.0645 6.35133 16.1152 6.19886 16.0707 6.0592Z" fill="#EFC943"/>
</g>
<defs>
<clipPath id="clip0">
<rect width="16" height="16" fill="white"/>
</clipPath>
</defs>
</svg>
