<svg width="33" height="22" viewBox="0 0 33 22" fill="none" xmlns="http://www.w3.org/2000/svg">
<path d="M7.78927 4.53922L6.20181 7.27598L8.83305 7.80521L8.87851 7.80978C9.58234 7.88056 10.4033 8.13388 11.3504 8.61008L11.3635 8.61669L11.3769 8.62288C12.3218 9.0615 13.1802 9.76492 13.947 10.7675L13.9585 10.7824L13.9704 10.7969C14.625 11.5868 15.018 12.7829 15.018 14.5204C15.018 16.6434 14.2756 18.4429 12.7572 19.9699C11.335 21.4001 9.63929 22.0699 7.60714 21.9942L7.6059 21.9942C5.49202 21.9183 3.69269 21.0966 2.16596 19.492C0.726302 17.8074 0 15.7845 0 13.3694C0 10.2642 0.943843 7.53869 2.83999 5.15509L2.84477 5.14909L2.84945 5.14301C4.60887 2.85757 6.83711 1.14381 9.55272 0L10.6904 2.14512C9.44836 2.74327 8.46385 3.52163 7.80529 4.51506L7.78927 4.53922Z" fill="#C9252E"/>
<path d="M25.5879 21.9942C23.474 21.9183 21.6747 21.0966 20.1479 19.492C18.7083 17.8074 17.982 15.7845 17.982 13.3694C17.982 10.2642 18.9258 7.53869 20.822 5.15509L20.8268 5.14909L20.8314 5.14301C22.5909 2.85757 24.8191 1.14381 27.5347 0L28.6723 2.14512C27.4303 2.74327 26.4458 3.52163 25.7873 4.51506L25.7713 4.53922L24.1838 7.27598L26.815 7.80521L26.8605 7.80978C27.5643 7.88056 28.3853 8.13388 29.3323 8.61008L29.3455 8.61669L29.3588 8.62288C30.3038 9.0615 31.1622 9.76492 31.929 10.7675L31.9404 10.7824L31.9524 10.7969C32.607 11.5868 33 12.7829 33 14.5204C33 16.6434 32.2576 18.4429 30.7392 19.9699C29.317 21.4001 27.6213 22.0699 25.5891 21.9942L25.5879 21.9942Z" fill="#C9252E"/>
</svg>
