<svg width="65" height="73" viewBox="0 0 65 73" fill="none" xmlns="http://www.w3.org/2000/svg">
<path fill-rule="evenodd" clip-rule="evenodd" d="M51.3959 50.5597V54.3471H53.5154C54.4529 54.3471 55.2735 55.1375 55.2735 56.1886C55.2735 57.2396 54.4529 58.03 53.5154 58.03H49.6378C48.7008 58.03 47.8797 57.2395 47.8797 56.1886V50.5597C47.8797 49.5088 48.7008 48.7183 49.6378 48.7183C50.5753 48.7183 51.3959 49.5087 51.3959 50.5597ZM34.375 56.1886C34.375 47.4944 41.2564 40.481 49.6378 40.481C58.0197 40.481 64.9006 47.4944 64.9006 56.1886C64.9006 64.8827 58.0197 71.8962 49.6378 71.8962C41.2564 71.8962 34.375 64.8827 34.375 56.1886ZM37.8911 56.1886C37.8911 62.786 43.1262 68.2133 49.6378 68.2133C56.1495 68.2133 61.3845 62.786 61.3845 56.1886C61.3845 49.5911 56.1495 44.1638 49.6378 44.1638C43.1262 44.1638 37.8911 49.5911 37.8911 56.1886Z" fill="#C9252E"/>
<path fill-rule="evenodd" clip-rule="evenodd" d="M21.4924 11.133V13.6297C21.4924 17.9417 24.9337 21.3953 29.0938 21.3953C33.2533 21.3953 36.6951 17.9417 36.6951 13.6297V11.133H46.8194C50.6054 11.133 53.6291 14.2557 53.6291 18.0279V33.9081C53.6291 34.9896 54.4824 35.8095 55.466 35.8095C56.4491 35.8095 57.3029 34.9894 57.3029 33.9081V18.0279C57.3029 12.0993 52.5681 7.33022 46.8194 7.33022H36.6951V1.90137C36.6951 0.820098 35.8413 0 34.8582 0H23.3293C22.3457 0 21.4924 0.819962 21.4924 1.90137V7.33022H11.3839C5.63466 7.33022 0.900391 12.0992 0.900391 18.0279V62.3024C0.900391 68.231 5.63466 73 11.3839 73H31.5003C32.4834 73 33.3372 72.1799 33.3372 71.0986C33.3372 70.0175 32.4836 69.1973 31.4997 69.1973H11.3839C7.59789 69.1973 4.57416 66.0745 4.57416 62.3024V18.0279C4.57416 14.2557 7.59789 11.133 11.3839 11.133H21.4924ZM25.1657 3.80274H33.0207V13.6297C33.0207 15.7853 31.29 17.5925 29.0932 17.5925C26.8964 17.5925 25.1657 15.7853 25.1657 13.6297V3.80274ZM35.4999 17.6157C36.1936 16.4569 36.5952 15.0936 36.5952 13.6297V11.0336H36.595V13.6301C36.595 15.0938 36.1935 16.4569 35.4999 17.6157ZM56.9868 34.7812C57.1238 34.5256 57.2028 34.2294 57.2028 33.9085V18.0282C57.2028 12.1531 52.5111 7.43032 46.8191 7.43032H36.595V1.90174C36.595 0.874379 35.7848 0.100098 34.8579 0.100098H23.3291C22.7369 0.100098 22.1927 0.41579 21.8767 0.91156C22.1927 0.415577 22.737 0.0997268 23.3293 0.0997268H34.8582C35.785 0.0997268 36.5952 0.874008 36.5952 1.90137V7.42995H46.8194C52.5113 7.42995 57.203 12.1527 57.203 18.0279V33.9081C57.203 34.2292 57.1239 34.5255 56.9868 34.7812ZM21.592 7.42995H11.3839C7.80042 7.42995 4.61373 9.30149 2.74435 12.1539C4.61376 9.3017 7.80034 7.43032 11.3837 7.43032H21.592V7.42995ZM5.49656 14.3708C4.84733 15.439 4.47408 16.6937 4.47408 18.0282V62.3027C4.47408 66.1281 7.54066 69.2974 11.3837 69.2974H31.4995C32.4271 69.2974 33.2371 70.0718 33.2371 71.099C33.2371 71.3958 33.1695 71.6715 33.051 71.9135C33.1696 71.6714 33.2373 71.3956 33.2373 71.0986C33.2373 70.0714 32.4273 69.297 31.4997 69.297H11.3839C7.54089 69.297 4.47432 66.1277 4.47432 62.3024V18.0279C4.47432 16.6935 4.84747 15.4389 5.49656 14.3708ZM32.4901 15.8092C31.7799 16.9338 30.5348 17.6923 29.0932 17.6923C26.8393 17.6923 25.0658 15.8384 25.0658 13.6297V3.70339H25.0656V13.6301C25.0656 15.8388 26.8391 17.6926 29.093 17.6926C30.5347 17.6926 31.7799 16.934 32.4901 15.8092Z" fill="#979797"/>
</svg>
