<svg width="13" height="4" viewBox="0 0 13 4" fill="none" xmlns="http://www.w3.org/2000/svg">
<path d="M5.74297 0.758171L7.83132 1.80392C8.249 2.01307 8.58835 2.16122 8.8494 2.24837C9.11044 2.33551 9.35408 2.37909 9.58032 2.37909C10.1198 2.37909 10.5462 2.18736 10.8594 1.80392C11.1901 1.40305 11.4163 0.801743 11.5382 0L13 0.183007C12.8608 1.38562 12.4953 2.3268 11.9036 3.00654C11.3119 3.66885 10.5723 4 9.68474 4C9.35408 4 8.98862 3.94771 8.58835 3.84314C8.18809 3.72113 7.74431 3.52941 7.25703 3.26797L5.16867 2.22222C4.7162 1.99564 4.36814 1.83878 4.1245 1.75163C3.88086 1.66449 3.64592 1.62092 3.41968 1.62092C2.88019 1.62092 2.45382 1.82135 2.14056 2.22222C1.82731 2.60567 1.60977 3.19826 1.48795 4L0 3.81699C0.156626 2.61438 0.522088 1.68192 1.09639 1.01961C1.68809 0.339869 2.42771 0 3.31526 0C3.66332 0 4.02878 0.0610031 4.41165 0.183007C4.81191 0.287583 5.25569 0.479304 5.74297 0.758171Z" fill="#C9252E"/>
</svg>
