<svg height="480pt" viewBox="0 0 480 480" width="480pt" xmlns="http://www.w3.org/2000/svg"><path d="m304 384c0 4.417969-3.582031 8-8 8s-8-3.582031-8-8 3.582031-8 8-8 8 3.582031 8 8zm0 0" fill="#fff"/><path d="m64 456v-56c8.832031-.011719 15.988281-7.167969 16-16v-16h16v-16h-72c-4.417969-.003906-7.996094-3.582031-8-8v-24h80v-16h-80v-280c.003906-4.417969 3.582031-7.996094 8-8h232c4.417969.003906 7.996094 3.582031 8 8v40h16v-40c-.015625-13.25-10.75-23.984375-24-24h-232c-13.25.015625-23.984375 10.75-24 24v320c.015625 13.25 10.75 23.984375 24 24h8v16c.011719 8.832031 7.167969 15.988281 16 16v56c.015625 13.25 10.75 23.984375 24 24h136v-16h-136c-4.417969-.003906-7.996094-3.582031-8-8zm0-88 .007812 16h-16.007812v-16zm0 0" fill="#fff"/><path d="m456 80h-320c-13.25.015625-23.984375 10.75-24 24v304c.015625 13.25 10.75 23.984375 24 24h112v32h-24v16h144v-16h-24v-32h112c13.25-.015625 23.984375-10.75 24-24v-304c-.015625-13.25-10.75-23.984375-24-24zm-128 384h-64v-32h64zm136-56c-.003906 4.417969-3.582031 7.996094-8 8h-320c-4.417969-.003906-7.996094-3.582031-8-8v-56h336zm-336-72v-232c.003906-4.417969 3.582031-7.996094 8-8h320c4.417969.003906 7.996094 3.582031 8 8v232zm0 0" fill="#fff"/><path d="m328 160h-41.472656c-3.371094-9.5625-12.390625-15.96875-22.527344-16h-16v-8c-.015625-13.25-10.75-23.984375-24-24h-16c-13.25.015625-23.984375 10.75-24 24v8h-16c-13.25.015625-23.984375 10.75-24 24v96c.015625 13.25 10.75 23.984375 24 24h16v8c.015625 13.25 10.75 23.984375 24 24h16c13.25-.015625 23.984375-10.75 24-24v-8h16c10.136719-.03125 19.15625-6.4375 22.527344-16h41.472656c13.25-.015625 23.984375-10.75 24-24v-64c-.015625-13.25-10.75-23.984375-24-24zm-128-24c.003906-4.417969 3.582031-7.996094 8-8h16c4.417969.003906 7.996094 3.582031 8 8v8h-32zm32 160c-.003906 4.417969-3.582031 7.996094-8 8h-16c-4.417969-.003906-7.996094-3.582031-8-8v-8h32zm32-24h-96c-4.417969-.003906-7.996094-3.582031-8-8v-96c.003906-4.417969 3.582031-7.996094 8-8h96c4.417969.003906 7.996094 3.582031 8 8v96c-.003906 4.417969-3.582031 7.996094-8 8zm72-24c-.003906 4.417969-3.582031 7.996094-8 8h-40v-80h40c4.417969.003906 7.996094 3.582031 8 8zm0 0" fill="#fff"/><path d="m176 176h16v16h-16zm0 0" fill="#fff"/><path d="m208 176h16v16h-16zm0 0" fill="#fff"/><path d="m240 176h16v16h-16zm0 0" fill="#fff"/><path d="m176 240h16v16h-16zm0 0" fill="#fff"/><path d="m208 240h16v16h-16zm0 0" fill="#fff"/><path d="m240 240h16v16h-16zm0 0" fill="#fff"/><path d="m304 224h16v16h-16zm0 0" fill="#fff"/><path d="m304 192h16v16h-16zm0 0" fill="#fff"/><path d="m400 184v64c.015625 13.25 10.75 23.984375 24 24h24v-16h-24c-4.417969-.003906-7.996094-3.582031-8-8v-64c.003906-4.417969 3.582031-7.996094 8-8h24v-16h-24c-13.25.015625-23.984375 10.75-24 24zm0 0" fill="#fff"/><path d="m432 224h16v16h-16zm0 0" fill="#fff"/><path d="m432 192h16v16h-16zm0 0" fill="#fff"/><path d="m368 144h16v16h-16zm0 0" fill="#fff"/><path d="m368 176h16v16h-16zm0 0" fill="#fff"/><path d="m368 208h16v16h-16zm0 0" fill="#fff"/><path d="m368 240h16v16h-16zm0 0" fill="#fff"/><path d="m368 272h16v16h-16zm0 0" fill="#fff"/><path d="m176 64v-8c-.015625-13.25-10.75-23.984375-24-24h-96c-13.25.015625-23.984375 10.75-24 24v96c.015625 13.25 10.75 23.984375 24 24h40v-16h-40c-4.417969-.003906-7.996094-3.582031-8-8v-96c.003906-4.417969 3.582031-7.996094 8-8h96c4.417969.003906 7.996094 3.582031 8 8v8zm0 0" fill="#fff"/><path d="m64 64h16v16h-16zm0 0" fill="#fff"/><path d="m64 96h16v16h-16zm0 0" fill="#fff"/><path d="m64 256h16v16h-16zm0 0" fill="#fff"/><path d="m64 128h16v16h-16zm0 0" fill="#fff"/><path d="m48 192h16v16h-16zm0 0" fill="#fff"/><path d="m80 192h16v16h-16zm0 0" fill="#fff"/><path d="m96 224h-40c-13.25.015625-23.984375 10.75-24 24v40h16v-40c.003906-4.417969 3.582031-7.996094 8-8h40zm0 0" fill="#fff"/></svg>