<svg height="480pt" viewBox="-64 0 480 480.00764" width="480pt" xmlns="http://www.w3.org/2000/svg"><path d="m88.003906 334.710938c4.417969 0 8-3.582032 8-8v-125.40625c0-4.417969-3.582031-8-8-8-4.417968 0-8 3.582031-8 8v125.40625c0 4.417968 3.582032 8 8 8zm0 0" fill="#fff"/><path d="m88.003906 177.304688c4.417969 0 8-3.582032 8-8v-8c0-4.417969-3.582031-8-8-8-4.417968 0-8 3.582031-8 8v8c0 4.417968 3.582032 8 8 8zm0 0" fill="#fff"/><path d="m.00390625 398.710938c.01171875 34.980468 20.73828175 66.632812 52.80078175 80.625 2.472656 1.078124 5.320312.839843 7.578124-.636719 2.257813-1.476563 3.621094-3.992188 3.621094-6.691407v-80c0-13.253906 10.746094-24 24-24s24 10.746094 24 24v80c0 4.417969 3.582032 8 8 8 1.101563.003907 2.191406-.226562 3.199219-.671874 31.1875-13.601563 51.730469-43.964844 52.757813-77.972657 1.027343-34.003906-17.648438-65.554687-47.957032-81.011719v-160.6875c30.308594-15.457031 48.984375-47.007812 47.957032-81.011718-1.027344-34.007813-21.570313-64.371094-52.757813-77.972656-2.472656-1.078126-5.320313-.839844-7.578125.636718-2.257812 1.476563-3.621094 3.992188-3.621094 6.691406v73.296876c0 13.253906-10.746094 24-24 24s-24-10.746094-24-24v-73.296876c0-2.699218-1.363281-5.214843-3.621094-6.691406-2.257812-1.476562-5.105468-1.714844-7.578124-.636718-31.1875 13.601562-51.730469 43.964843-52.757813 77.972656-1.027344 34.003906 17.648437 65.554687 47.957031 81.011718v160.6875c-29.449218 15.027344-47.9921872 45.296876-47.99999975 78.359376zm59.19921875-251.4375c-24.125-10.519532-40.582031-33.367188-42.917969-59.578126-2.332031-26.214843 9.832032-51.609374 31.71875-66.222656v59.832032c0 22.089843 17.910156 40 40 40s40-17.910157 40-40v-59.832032c21.886719 14.613282 34.050782 40.007813 31.71875 66.222656-2.335937 26.210938-18.792968 49.058594-42.917968 59.578126-2.914063 1.269531-4.800782 4.148437-4.800782 7.324218v170.816406c0 3.179688 1.886719 6.058594 4.800782 7.328126 24.125 10.515624 40.582031 33.367187 42.917968 59.578124 2.332032 26.214844-9.832031 51.609376-31.71875 66.222657v-66.535157c0-22.089843-17.910156-40-40-40s-40 17.910157-40 40v66.535157c-21.886718-14.613281-34.050781-40.007813-31.71875-66.222657 2.335938-26.210937 18.792969-49.0625 42.917969-59.578124 2.914063-1.269532 4.800781-4.148438 4.800781-7.328126v-170.816406c0-3.175781-1.886718-6.054687-4.800781-7.324218zm0 0" fill="#fff"/><path d="m240.003906 296.007812v148.472657c.015625 10.3125 6.621094 19.464843 16.40625 22.726562l37.066406 12.351563c1.617188.546875 3.371094.546875 4.992188 0l37.128906-12.351563c9.785156-3.261719 16.390625-12.414062 16.40625-22.726562v-148.472657c0-4.417968-3.582031-8-8-8h-11.054687l10.253906-20.425781c.046875-.09375.058594-.199219.105469-.292969.046875-.097656.109375-.351562.183594-.53125.246093-.898437.417968-1.820312.511718-2.75v-48c0-4.417968-3.582031-8-8-8h-16v-144c0-.742187-.101562-1.480468-.304687-2.191406l-16-56c-.976563-3.441406-4.117188-5.816406-7.695313-5.816406s-6.71875 2.375-7.695312 5.816406l-16 56c-.203125.710938-.304688 1.449219-.304688 2.191406v144h-16c-4.417968 0-8 3.582032-8 8v48c.105469.929688.289063 1.851563.550782 2.75.074218.179688.113281.363282.183593.53125.074219.167969.058594.199219.105469.292969l10.214844 20.425781h-11.054688c-4.417968 0-8 3.582032-8 8zm96 148.472657c0 3.445312-2.203125 6.503906-5.472656 7.589843l-26.527344 8.832032v-156.894532h32zm-48-379.351563 8-28 8 28v142.878906h-16zm-24 158.878906h64v32h-64zm4.945313 48h54.109375l-8 16h-38.109375zm-12.945313 32h32v156.894532l-26.527344-8.796875c-3.28125-1.09375-5.488281-4.167969-5.472656-7.625zm0 0" fill="#fff"/></svg>